<?xml version="1.0" encoding="UTF-8" standalone="no"?>
<svg
   xmlns:dc="http://purl.org/dc/elements/1.1/"
   xmlns:cc="http://creativecommons.org/ns#"
   xmlns:rdf="http://www.w3.org/1999/02/22-rdf-syntax-ns#"
   xmlns:svg="http://www.w3.org/2000/svg"
   xmlns="http://www.w3.org/2000/svg"
   xmlns:sodipodi="http://sodipodi.sourceforge.net/DTD/sodipodi-0.dtd"
   xmlns:inkscape="http://www.inkscape.org/namespaces/inkscape"
   version="1.1"
   width="24"
   height="24"
   viewBox="0 0 24 24"
   id="svg3725"
   sodipodi:docname="theme-light-dark.svg"
   inkscape:version="0.92.3 (2405546, 2018-03-11)">
  <metadata
     id="metadata3731">
    <rdf:RDF>
      <cc:Work
         rdf:about="">
        <dc:format>image/svg+xml</dc:format>
        <dc:type
           rdf:resource="http://purl.org/dc/dcmitype/StillImage" />
      </cc:Work>
    </rdf:RDF>
  </metadata>
  <defs
     id="defs3729" />
  <sodipodi:namedview
     pagecolor="#ffffff"
     bordercolor="#666666"
     borderopacity="1"
     objecttolerance="10"
     gridtolerance="10"
     guidetolerance="10"
     inkscape:pageopacity="0"
     inkscape:pageshadow="2"
     inkscape:window-width="1920"
     inkscape:window-height="1017"
     id="namedview3727"
     showgrid="false"
     inkscape:zoom="35.333333"
     inkscape:cx="12"
     inkscape:cy="12"
     inkscape:window-x="-8"
     inkscape:window-y="-8"
     inkscape:window-maximized="1"
     inkscape:current-layer="svg3725" />
  <path
     d="M7.5,2C5.71,3.15 4.5,5.18 4.5,7.5C4.5,9.82 5.71,11.85 7.53,13C4.46,13 2,10.54 2,7.5A5.5,5.5 0 0,1 7.5,2M19.07,3.5L20.5,4.93L4.93,20.5L3.5,19.07L19.07,3.5M12.89,5.93L11.41,5L9.97,6L10.39,4.3L9,3.24L10.75,3.12L11.33,1.47L12,3.1L13.73,3.13L12.38,4.26L12.89,5.93M9.59,9.54L8.43,8.81L7.31,9.59L7.65,8.27L6.56,7.44L7.92,7.35L8.37,6.06L8.88,7.33L10.24,7.36L9.19,8.23L9.59,9.54M19,13.5A5.5,5.5 0 0,1 13.5,19C12.28,19 11.15,18.6 10.24,17.93L17.93,10.24C18.6,11.15 19,12.28 19,13.5M14.6,20.08L17.37,18.93L17.13,22.28L14.6,20.08M18.93,17.38L20.08,14.61L22.28,17.15L18.93,17.38M20.08,12.42L18.94,9.64L22.28,9.88L20.08,12.42M9.63,18.93L12.4,20.08L9.87,22.27L9.63,18.93Z"
     id="path3723" />
  <path
     style="fill:#ffffff;stroke-width:0.02830189"
     d="M 6.936994,12.975196 C 5.595495,12.83497 4.2547805,12.145927 3.3797391,11.14699 1.4855353,8.9845913 1.5460197,5.7697061 3.5197657,3.7042534 4.2580106,2.9317072 5.2241394,2.3768178 6.246199,2.1383454 6.546964,2.0681693 7.084367,1.9981132 7.3219259,1.9981132 H 7.5088772 L 7.2992499,2.1440253 C 6.8541003,2.4538738 6.2762689,2.993613 5.9404947,3.4132075 5.6936595,3.7216611 5.3547906,4.2579947 5.1805166,4.6160377 4.7265735,5.5486562 4.5197342,6.4408956 4.51786,7.4745283 4.51685,8.0301096 4.547186,8.3559841 4.6429956,8.8188679 c 0.327613,1.5827941 1.2756812,3.0458931 2.5542849,3.9418801 0.1381718,0.09682 0.2723603,0.191559 0.2981969,0.210522 0.038563,0.0283 0.014029,0.03397 -0.1369868,0.03162 C 7.2573113,13.00129 7.0676377,12.98886 6.936994,12.9752 Z"
     id="path3744"
     inkscape:connector-curvature="0" />
  <path
     style="fill:#ffffff;stroke-width:0.02830189"
     d="M 7.3113184,9.542659 C 7.3671792,9.3970879 7.6379568,8.2668326 7.6205556,8.2518686 7.6087312,8.2417002 7.3663822,8.0575773 7.0820025,7.8427067 6.7976227,7.627836 6.5683808,7.4486003 6.572576,7.4444052 6.579966,7.4370152 7.779977,7.3470682 7.8702192,7.3471362 7.9031542,7.347161 7.9733982,7.1787194 8.136323,6.7090285 8.258069,6.3580507 8.36747,6.081046 8.3794363,6.0934624 c 0.011966,0.012417 0.125654,0.2836603 0.2526392,0.6027641 0.1269852,0.3191038 0.2400702,0.589745 0.2512999,0.6014249 0.01123,0.01168 0.3227343,0.030784 0.6922323,0.042453 L 10.247422,7.3613208 9.7227679,7.7969319 C 9.4342078,8.0365181 9.1983982,8.2339238 9.1987466,8.2356112 9.199095,8.2372985 9.2869391,8.5252358 9.3939558,8.8754717 9.5009725,9.2257075 9.5840581,9.5169832 9.5785902,9.5227511 9.5731223,9.5285191 9.3127876,9.3719329 9.0000685,9.1747823 L 8.4314885,8.8163263 7.8813277,9.1996726 C 7.5787393,9.4105129 7.3232163,9.5830189 7.3134989,9.5830189 c -0.00972,0 -0.010699,-0.018162 -0.00218,-0.04036 z"
     id="path3746"
     inkscape:connector-curvature="0" />
  <path
     style="fill:#ffffff;stroke-width:0.02830189"
     d="M 9.9733368,5.9391509 C 10.007206,5.8264712 10.360303,4.396009 10.366217,4.3475188 10.37093,4.3088796 10.189349,4.1550597 9.6845847,3.7700974 9.1117273,3.3332036 9.0074803,3.2430535 9.0619432,3.2316535 c 0.035978,-0.00753 0.4187751,-0.035837 0.8506592,-0.062902 0.4318846,-0.027065 0.7976276,-0.056862 0.8127636,-0.066217 0.01514,-0.00935 0.14897,-0.3603789 0.29741,-0.7800546 0.14844,-0.4196758 0.277193,-0.7821506 0.286118,-0.8054997 0.02283,-0.059741 0.04285,-0.016976 0.394127,0.8419812 l 0.303823,0.7429245 0.654597,0.0037 c 0.360028,0.00203 0.746827,0.011586 0.859553,0.021226 l 0.204957,0.017527 -0.664066,0.5518868 c -0.365236,0.3035378 -0.664424,0.5619084 -0.664862,0.5741571 -4.39e-4,0.012249 0.107458,0.3757323 0.239769,0.8077417 0.132312,0.4320093 0.240566,0.8004085 0.240566,0.8186646 0,0.018256 -0.315212,-0.1656102 -0.700471,-0.4085915 -0.38526,-0.2429816 -0.720294,-0.4471248 -0.74452,-0.4536518 -0.02465,-0.00664 -0.350516,0.2008384 -0.739957,0.4711327 -0.38275,0.26565 -0.7044702,0.483 -0.7149344,0.483 -0.010464,0 -0.012327,-0.022288 -0.00414,-0.049528 z"
     id="path3748"
     inkscape:connector-curvature="0" />
  <path
     style="fill:#ffffff;stroke-width:0.02830189"
     d="m 4.2169747,19.785843 -0.7214771,-0.721894 7.7898844,-7.789884 7.789884,-7.789884 0.70765,0.7072255 c 0.389207,0.3889741 0.70765,0.7200656 0.70765,0.735759 0,0.015693 -3.499226,3.5277419 -7.776057,7.8045525 l -7.7760572,7.776018 z"
     id="path3750"
     inkscape:connector-curvature="0" />
  <path
     style="fill:#ffffff;stroke-width:0.02830189"
     d="m 12.92306,18.976481 c -0.827508,-0.08728 -1.709163,-0.399552 -2.401618,-0.850638 -0.15165,-0.09879 -0.275825,-0.186002 -0.275943,-0.193807 -1.19e-4,-0.0078 1.730117,-1.744488 3.844969,-3.859297 l 3.845185,-3.845107 0.16528,0.250807 c 1.330175,2.018496 1.16961,4.70432 -0.392533,6.566015 -1.166795,1.390537 -2.979676,2.122467 -4.78534,1.932027 z"
     id="path3752"
     inkscape:connector-curvature="0" />
  <path
     style="fill:#ffffff;stroke-width:0.02830189"
     d="M 19.998206,12.236321 C 19.514183,11.082464 18.94293,9.6518289 18.963319,9.6445718 c 0.03083,-0.010971 3.29158,0.2224194 3.306265,0.2366481 0.01023,0.00992 -2.16827,2.5319881 -2.18707,2.5319881 -0.0056,0 -0.0435,-0.0796 -0.08431,-0.176887 z"
     id="path3754"
     inkscape:connector-curvature="0" />
  <path
     style="fill:#ffffff;stroke-width:0.02830189"
     d="m 18.934058,17.37178 c 2.23e-4,-0.04626 1.129507,-2.735864 1.150914,-2.741116 0.02261,-0.0055 2.164599,2.457265 2.183896,2.510993 0.0052,0.01445 -0.02643,0.02627 -0.07027,0.02627 -0.09588,0 -2.938645,0.1909 -3.1302,0.210202 -0.07394,0.0075 -0.134391,0.0046 -0.134338,-0.0063 z"
     id="path3756"
     inkscape:connector-curvature="0" />
  <path
     style="fill:#ffffff;stroke-width:0.02830189"
     d="m 15.859734,21.183125 c -0.682995,-0.593526 -1.244811,-1.08704 -1.248479,-1.096698 -0.0064,-0.0168 2.744558,-1.166463 2.758289,-1.152732 0.01586,0.01586 -0.23203,3.328569 -0.249078,3.328569 -0.01041,0 -0.577737,-0.485612 -1.260732,-1.079139 z"
     id="path3758"
     inkscape:connector-curvature="0" />
  <path
     style="fill:#ffffff;stroke-width:0.02830189"
     d="m 9.7422089,20.601304 c -0.065122,-0.913527 -0.1153058,-1.664056 -0.1115208,-1.667841 0.013995,-0.014 2.7650379,1.136046 2.7583389,1.153091 -0.0096,0.02434 -2.4937301,2.174637 -2.5129664,2.175232 -0.0085,2.63e-4 -0.06873,-0.746954 -0.1338517,-1.660482 z"
     id="path3760"
     inkscape:connector-curvature="0" />
</svg>
